Moderustic-Bold.ufo
<glyph name="one" format="2">
  <advance width="456"/>
  <unicode hex="0031"/>
  <outline>
    <contour>
      <point x="213" y="0" type="line"/>
      <point x="379" y="0" type="line"/>
      <point x="379" y="700" type="line"/>
      <point x="236" y="700" type="line"/>
      <point x="179" y="608"/>
      <point x="105" y="535"/>
      <point x="9" y="515" type="curve"/>
      <point x="9" y="378" type="line"/>
      <point x="127" y="409"/>
      <point x="161" y="439"/>
      <point x="213" y="493" type="curve"/>
    </contour>
  </outline>
</glyph>
<glyph name="six" format="2">
  <advance width="631"/>
  <unicode hex="0036"/>
  <outline>
    <contour>
      <point x="583" y="628" type="line"/>
      <point x="545" y="665"/>
      <point x="470" y="720"/>
      <point x="339" y="720" type="curve" smooth="yes"/>
      <point x="144" y="720"/>
      <point x="28" y="581"/>
      <point x="28" y="338" type="curve" smooth="yes"/>
      <point x="28" y="103"/>
      <point x="133" y="-20"/>
      <point x="319" y="-20" type="curve" smooth="yes"/>
      <point x="491" y="-20"/>
      <point x="599" y="86"/>
      <point x="599" y="228" type="curve" smooth="yes"/>
      <point x="599" y="372"/>
      <point x="493" y="458"/>
      <point x="359" y="458" type="curve" smooth="yes"/>
      <point x="267.063" y="458"/>
      <point x="187.983" y="418.001"/>
      <point x="163.751" y="346.555" type="curve"/>
      <point x="179.39" y="338.906" type="line"/>
      <point x="173.575" y="499.134"/>
      <point x="232.986" y="589"/>
      <point x="345" y="589" type="curve" smooth="yes"/>
      <point x="400" y="589"/>
      <point x="443.888" y="567.23"/>
      <point x="485" y="530" type="curve"/>
    </contour>
    <contour>
      <point x="212" y="217" type="curve" smooth="yes"/>
      <point x="212" y="291"/>
      <point x="256" y="338"/>
      <point x="327" y="338" type="curve" smooth="yes"/>
      <point x="395" y="338"/>
      <point x="434" y="295"/>
      <point x="434" y="228" type="curve" smooth="yes"/>
      <point x="434" y="155"/>
      <point x="389" y="110"/>
      <point x="317" y="110" type="curve" smooth="yes"/>
      <point x="251" y="110"/>
      <point x="212" y="148"/>
    </contour>
  </outline>
</glyph>
<glyph name="R" format="2">
  <advance width="648"/>
  <unicode hex="0052"/>
  <anchor x="324" y="719" name="top"/>
  <anchor x="324" y="-20" name="bottom"/>
  <outline>
    <contour>
      <point x="58" y="0" type="line"/>
      <point x="224" y="0" type="line" name="ab01"/>
      <point x="224" y="570" type="line" name="sv01"/>
      <point x="314" y="570" type="line" smooth="yes"/>
      <point x="410" y="570"/>
      <point x="442" y="537"/>
      <point x="442" y="472" type="curve" smooth="yes"/>
      <point x="442" y="407"/>
      <point x="410" y="374"/>
      <point x="314" y="374" type="curve" smooth="yes"/>
      <point x="100" y="374" type="line" name="dv02"/>
      <point x="100" y="244" type="line" name="dv01"/>
      <point x="348" y="244" type="line" smooth="yes"/>
      <point x="507" y="244"/>
      <point x="609" y="334"/>
      <point x="609" y="476" type="curve" smooth="yes"/>
      <point x="609" y="615"/>
      <point x="511" y="700"/>
      <point x="348" y="700" type="curve" smooth="yes" name="at01"/>
      <point x="58" y="700" type="line"/>
    </contour>
    <contour>
      <point x="449" y="0" type="line" name="ab02"/>
      <point x="627" y="0" type="line"/>
      <point x="457" y="333" type="line"/>
      <point x="306" y="281" type="line"/>
    </contour>
  </outline>
</glyph>
<glyph name="X" format="2">
  <advance width="648"/>
  <unicode hex="0058"/>
  <anchor x="324" y="719" name="top"/>
  <anchor x="324" y="-20" name="bottom"/>
  <outline>
    <contour>
      <point x="10" y="0" type="line"/>
      <point x="204" y="0" type="line"/>
      <point x="325" y="218" type="line"/>
      <point x="446" y="0" type="line"/>
      <point x="641" y="0" type="line"/>
      <point x="428" y="354" type="line"/>
      <point x="636" y="700" type="line"/>
      <point x="441" y="700" type="line"/>
      <point x="324" y="489" type="line"/>
      <point x="207" y="700" type="line"/>
      <point x="11" y="700" type="line"/>
      <point x="221" y="351" type="line"/>
    </contour>
  </outline>
</glyph>
<glyph name="h" format="2">
  <advance width="606"/>
  <unicode hex="0068"/>
  <anchor x="308" y="-20" name="bottom"/>
  <anchor x="131" y="750" name="top"/>
  <outline>
    <contour>
      <point x="49" y="0" type="line" name="ab03"/>
      <point x="214" y="0" type="line"/>
      <point x="214" y="750" type="line" name="ab01"/>
      <point x="49" y="750" type="line"/>
    </contour>
    <contour>
      <point x="401" y="0" type="line" name="ab01"/>
      <point x="566" y="0" type="line"/>
      <point x="566" y="304" type="line" smooth="yes"/>
      <point x="566" y="448"/>
      <point x="505" y="520"/>
      <point x="390" y="520" type="curve" smooth="yes" name="at01"/>
      <point x="281" y="520"/>
      <point x="217" y="428"/>
      <point x="200" y="350" type="curve"/>
      <point x="202" y="278" type="line"/>
      <point x="214" y="217" type="line" name="iv01"/>
      <point x="214" y="312"/>
      <point x="250" y="396"/>
      <point x="327" y="396" type="curve" smooth="yes" name="sv01"/>
      <point x="373" y="396"/>
      <point x="401" y="367"/>
      <point x="401" y="272" type="curve" smooth="yes"/>
    </contour>
  </outline>
</glyph>
<glyph name="l" format="2">
  <advance width="300"/>
  <unicode hex="006C"/>
  <anchor x="128" y="750" name="top"/>
  <anchor x="180" y="-20" name="bottom"/>
  <anchor x="250" y="750" name="topright"/>
  <outline>
    <contour>
      <point x="293" y="117" type="line"/>
      <point x="274" y="110"/>
      <point x="256.101" y="107"/>
      <point x="245.739" y="107" type="curve" smooth="yes" name="dv02"/>
      <point x="217.478" y="107"/>
      <point x="209" y="127"/>
      <point x="209" y="193" type="curve" smooth="yes"/>
      <point x="209" y="750" type="line" name="ab01"/>
      <point x="44" y="750" type="line"/>
      <point x="44" y="132" type="line" smooth="yes"/>
      <point x="44" y="33"/>
      <point x="94.136" y="-20"/>
      <point x="201.288" y="-20" type="curve" smooth="yes" name="dv01"/>
      <point x="239.627" y="-20"/>
      <point x="276" y="-11"/>
      <point x="323" y="5" type="curve"/>
    </contour>
  </outline>
</glyph>
<glyph name="m" format="2">
  <advance width="899"/>
  <unicode hex="006D"/>
  <anchor x="453" y="520" name="top"/>
  <anchor x="453" y="-20" name="bottom"/>
  <outline>
    <contour>
      <point x="45" y="0" type="line" name="ab01"/>
      <point x="210" y="0" type="line" name="sh01"/>
      <point x="210" y="500" type="line" name="av01"/>
      <point x="45" y="500" type="line"/>
    </contour>
    <contour>
      <point x="370" y="0" type="line" name="ab01"/>
      <point x="535" y="0" type="line"/>
      <point x="535" y="304" type="line" smooth="yes"/>
      <point x="535" y="448"/>
      <point x="478" y="520"/>
      <point x="381" y="520" type="curve" smooth="yes" name="at01"/>
      <point x="272" y="520"/>
      <point x="212" y="428"/>
      <point x="196" y="350" type="curve"/>
      <point x="198" y="278" type="line"/>
      <point x="210" y="217" type="line" name="iv01"/>
      <point x="210" y="312"/>
      <point x="241" y="396"/>
      <point x="307" y="396" type="curve" smooth="yes" name="sv01"/>
      <point x="345" y="396"/>
      <point x="370" y="367"/>
      <point x="370" y="272" type="curve" smooth="yes"/>
    </contour>
    <contour>
      <point x="695" y="0" type="line" name="ab01"/>
      <point x="860" y="0" type="line"/>
      <point x="860" y="304" type="line" smooth="yes"/>
      <point x="860" y="448"/>
      <point x="803" y="520"/>
      <point x="706" y="520" type="curve" smooth="yes" name="at01"/>
      <point x="597" y="520"/>
      <point x="537" y="428"/>
      <point x="521" y="350" type="curve"/>
      <point x="523" y="278" type="line"/>
      <point x="535" y="217" type="line" name="iv01"/>
      <point x="535" y="312"/>
      <point x="566" y="396"/>
      <point x="632" y="396" type="curve" smooth="yes" name="sv01"/>
      <point x="670" y="396"/>
      <point x="695" y="367"/>
      <point x="695" y="272" type="curve" smooth="yes"/>
    </contour>
  </outline>
</glyph>
<glyph name="o" format="2">
  <advance width="578"/>
  <unicode hex="006F"/>
  <anchor x="398" y="-3" name="ogonek"/>
  <anchor x="289" y="520" name="top"/>
  <anchor x="289" y="-20" name="bottom"/>
  <anchor x="289" y="520" name="topgr"/>
  <outline>
    <contour>
      <point x="289" y="-20" type="curve" smooth="yes" name="dv01"/>
      <point x="452.16" y="-20"/>
      <point x="555" y="80"/>
      <point x="555" y="255" type="curve" smooth="yes"/>
      <point x="555" y="431"/>
      <point x="448.204" y="520"/>
      <point x="289" y="520" type="curve" smooth="yes" name="at01"/>
      <point x="137.706" y="520"/>
      <point x="23" y="429"/>
      <point x="23" y="255" type="curve" smooth="yes"/>
      <point x="23" y="89"/>
      <point x="129.796" y="-20"/>
    </contour>
    <contour>
      <point x="286.087" y="103" type="curve" smooth="yes" name="dv02"/>
      <point x="221.99" y="103"/>
      <point x="188" y="155"/>
      <point x="188" y="254" type="curve" smooth="yes"/>
      <point x="188" y="349"/>
      <point x="221.019" y="396"/>
      <point x="287.058" y="396" type="curve" smooth="yes" name="sv01"/>
      <point x="355.038" y="396"/>
      <point x="390" y="347"/>
      <point x="390" y="252" type="curve" smooth="yes"/>
      <point x="390" y="156"/>
      <point x="353.096" y="103"/>
    </contour>
  </outline>
</glyph>
<glyph name="yen" format="2">
  <advance width="662"/>
  <unicode hex="00A5"/>
  <outline>
    <contour>
      <point x="130" y="97" type="line"/>
      <point x="533" y="97" type="line"/>
      <point x="533" y="172" type="line"/>
      <point x="130" y="172" type="line"/>
    </contour>
    <contour>
      <point x="130" y="228" type="line"/>
      <point x="533" y="228" type="line"/>
      <point x="533" y="303" type="line"/>
      <point x="130" y="303" type="line"/>
    </contour>
    <contour>
      <point x="248" y="0" type="line" name="ab01"/>
      <point x="414" y="0" type="line"/>
      <point x="414" y="284" type="line" name="iv04"/>
      <point x="654" y="700" type="line" name="at01"/>
      <point x="463" y="700" type="line"/>
      <point x="331" y="452" type="line" name="iv05"/>
      <point x="199" y="700" type="line" name="at02"/>
      <point x="8" y="700" type="line"/>
      <point x="248" y="284" type="line" name="iv01"/>
    </contour>
  </outline>
</glyph>
<glyph name="onesuperior" format="2">
  <advance width="333"/>
  <unicode hex="00B9"/>
  <outline>
    <contour>
      <point x="176" y="343" type="line"/>
      <point x="291" y="343" type="line"/>
      <point x="291" y="828" type="line"/>
      <point x="197" y="828" type="line"/>
      <point x="160" y="767"/>
      <point x="90" y="715"/>
      <point x="27" y="700" type="curve"/>
      <point x="27" y="606" type="line"/>
      <point x="92" y="619"/>
      <point x="145" y="647"/>
      <point x="176" y="683" type="curve"/>
    </contour>
  </outline>
</glyph>
<glyph name="AE" format="2">
  <advance width="880"/>
  <unicode hex="00C6"/>
  <anchor x="480" y="719" name="top"/>
  <anchor x="480" y="-20" name="bottom"/>
  <outline>
    <contour>
      <point x="398" y="0" type="line"/>
      <point x="835" y="0" type="line" name="ab01"/>
      <point x="835" y="130" type="line" name="sv01"/>
      <point x="564" y="130" type="line"/>
      <point x="564" y="300" type="line" name="dv01"/>
      <point x="795" y="300" type="line"/>
      <point x="795" y="430" type="line"/>
      <point x="564" y="430" type="line" name="dv02"/>
      <point x="564" y="570" type="line" name="sv02"/>
      <point x="820" y="570" type="line"/>
      <point x="820" y="700" type="line" name="at01"/>
      <point x="398" y="700" type="line"/>
    </contour>
    <contour>
      <point x="213" y="570" type="line"/>
      <point x="499" y="570" type="line"/>
      <point x="500" y="700" type="line"/>
      <point x="257" y="700" type="line"/>
    </contour>
    <contour>
      <point x="193" y="111" type="line" name="dv01"/>
      <point x="527" y="111" type="line"/>
      <point x="483" y="241" type="line" name="dv03"/>
      <point x="237" y="241" type="line" name="dv02"/>
    </contour>
    <contour>
      <point x="7" y="0" type="line"/>
      <point x="181" y="0" type="line"/>
      <point x="382" y="700" type="line"/>
      <point x="234" y="700" type="line"/>
    </contour>
  </outline>
</glyph>
<glyph name="ccedilla" format="2">
  <advance width="564"/>
  <unicode hex="00E7"/>
  <anchor x="304" y="520" name="top"/>
  <anchor x="284" y="-218" name="bottom"/>
  <outline>
    <contour>
      <point x="437" y="158" type="line"/>
      <point x="410" y="123"/>
      <point x="360" y="104"/>
      <point x="309" y="104" type="curve" smooth="yes" name="dv02"/>
      <point x="230" y="104"/>
      <point x="195" y="155"/>
      <point x="195" y="254" type="curve" smooth="yes"/>
      <point x="195" y="349"/>
      <point x="234" y="396"/>
      <point x="308" y="396" type="curve" smooth="yes" name="sv01"/>
      <point x="355" y="396"/>
      <point x="406" y="377"/>
      <point x="433" y="342" type="curve"/>
      <point x="518" y="427" type="line"/>
      <point x="468" y="488"/>
      <point x="393" y="520"/>
      <point x="294" y="520" type="curve" smooth="yes" name="at01"/>
      <point x="141" y="520"/>
      <point x="30" y="429"/>
      <point x="30" y="255" type="curve" smooth="yes"/>
      <point x="30" y="89"/>
      <point x="131" y="-20"/>
      <point x="292" y="-20" type="curve" smooth="yes" name="dv01"/>
      <point x="394" y="-20"/>
      <point x="472" y="12"/>
      <point x="522" y="73" type="curve"/>
    </contour>
    <contour>
      <point x="157" y="-205" type="line"/>
      <point x="179" y="-211"/>
      <point x="212" y="-218"/>
      <point x="259" y="-218" type="curve" smooth="yes"/>
      <point x="356" y="-218"/>
      <point x="408" y="-192"/>
      <point x="408" y="-133" type="curve" smooth="yes"/>
      <point x="408" y="-87"/>
      <point x="377" y="-64"/>
      <point x="307" y="-64" type="curve"/>
      <point x="354.224" y="19" type="line"/>
      <point x="261.224" y="19" type="line"/>
      <point x="196" y="-104" type="line"/>
      <point x="211" y="-102"/>
      <point x="229" y="-100"/>
      <point x="243" y="-100" type="curve" smooth="yes"/>
      <point x="276" y="-100"/>
      <point x="295" y="-111"/>
      <point x="295" y="-134" type="curve" smooth="yes"/>
      <point x="295" y="-155"/>
      <point x="279" y="-168"/>
      <point x="250" y="-168" type="curve" smooth="yes"/>
      <point x="232" y="-168"/>
      <point x="197" y="-163"/>
      <point x="177" y="-157" type="curve"/>
    </contour>
  </outline>
</glyph>
<glyph name="eogonek" format="2">
  <advance width="598"/>
  <unicode hex="0119"/>
  <anchor x="299" y="520" name="top"/>
  <anchor x="299" y="-20" name="bottom"/>
  <outline>
    <contour>
      <point x="198" y="332" type="line" name="sv02"/>
      <point x="204" y="367.896"/>
      <point x="242" y="397"/>
      <point x="300.688" y="397" type="curve" smooth="yes" name="sv01"/>
      <point x="353" y="397"/>
      <point x="397.698" y="373.875"/>
      <point x="403" y="332" type="curve" name="dv04"/>
    </contour>
    <contour>
      <point x="452" y="158" type="line"/>
      <point x="425" y="123"/>
      <point x="379" y="103"/>
      <point x="320" y="103" type="curve" smooth="yes" name="dv02"/>
      <point x="242" y="103"/>
      <point x="200" y="138"/>
      <point x="196" y="212" type="curve" name="sv04"/>
      <point x="571" y="212" type="line" name="dv03"/>
      <point x="582.595" y="404.026"/>
      <point x="481.306" y="520"/>
      <point x="302" y="520" type="curve" smooth="yes" name="at01"/>
      <point x="143" y="520"/>
      <point x="28" y="420"/>
      <point x="28" y="254" type="curve" smooth="yes" name="sv03"/>
      <point x="28" y="85"/>
      <point x="147" y="-20"/>
      <point x="315" y="-20" type="curve" smooth="yes" name="dv01"/>
      <point x="407" y="-20"/>
      <point x="487" y="12"/>
      <point x="537" y="73" type="curve"/>
    </contour>
    <contour>
      <point x="433" y="-183" type="line"/>
      <point x="390" y="-169"/>
      <point x="369" y="-138"/>
      <point x="369" y="-104" type="curve" smooth="yes"/>
      <point x="369" y="-67"/>
      <point x="393" y="-24"/>
      <point x="432" y="0" type="curve"/>
      <point x="393" y="3" type="line"/>
      <point x="297" y="-14"/>
      <point x="249" y="-53"/>
      <point x="249" y="-106" type="curve" smooth="yes"/>
      <point x="249" y="-158"/>
      <point x="295" y="-196"/>
      <point x="369" y="-206" type="curve"/>
    </contour>
  </outline>
</glyph>
<glyph name="dotlessi" format="2">
  <advance width="272"/>
  <unicode hex="0131"/>
  <anchor x="136" y="520" name="top"/>
  <anchor x="136" y="-20" name="bottom"/>
  <anchor x="212" y="-3" name="ogonek"/>
  <outline>
    <contour>
      <point x="54" y="0" type="line" name="ab01"/>
      <point x="219" y="0" type="line"/>
      <point x="219" y="500" type="line"/>
      <point x="54" y="500" type="line" name="av01"/>
    </contour>
  </outline>
</glyph>
<glyph name="lslash" format="2">
  <advance width="350"/>
  <unicode hex="0142"/>
  <outline>
    <contour>
      <point x="317" y="117" type="line"/>
      <point x="298" y="110"/>
      <point x="279" y="107"/>
      <point x="268" y="107" type="curve" smooth="yes" name="dv02"/>
      <point x="238" y="107"/>
      <point x="229" y="127"/>
      <point x="229" y="193" type="curve" smooth="yes"/>
      <point x="229" y="750" type="line" name="ab01"/>
      <point x="64" y="750" type="line"/>
      <point x="64" y="132" type="line" smooth="yes"/>
      <point x="64" y="33"/>
      <point x="115" y="-20"/>
      <point x="224" y="-20" type="curve" smooth="yes" name="dv01"/>
      <point x="263" y="-20"/>
      <point x="294" y="-13"/>
      <point x="341" y="3" type="curve"/>
    </contour>
    <contour>
      <point x="6" y="250" type="line"/>
      <point x="328" y="470" type="line"/>
      <point x="328" y="511" type="line"/>
      <point x="6" y="291" type="line"/>
    </contour>
  </outline>
</glyph>
<glyph name="OE" format="2">
  <advance width="968"/>
  <unicode hex="0152"/>
  <anchor x="484" y="719" name="top"/>
  <anchor x="484" y="-20" name="bottom"/>
  <outline>
    <contour>
      <point x="485.17" y="130" type="curve"/>
      <point x="413" y="130" type="line" smooth="yes" name="ab01"/>
      <point x="291" y="130"/>
      <point x="206" y="218"/>
      <point x="206" y="352" type="curve" smooth="yes"/>
      <point x="206" y="481"/>
      <point x="285" y="570"/>
      <point x="413" y="570" type="curve" smooth="yes" name="at01"/>
      <point x="425.88" y="570"/>
      <point x="471.212" y="570"/>
      <point x="485.17" y="570" type="curve"/>
      <point x="485.17" y="484.533"/>
      <point x="485.17" y="208.893"/>
    </contour>
    <contour>
      <point x="646.17" y="0" type="curve"/>
      <point x="646.17" y="143.017"/>
      <point x="646.17" y="569.915"/>
      <point x="646.17" y="700" type="curve"/>
      <point x="392" y="700" type="line" smooth="yes" name="sv02"/>
      <point x="182" y="700"/>
      <point x="38" y="558"/>
      <point x="38" y="350" type="curve" smooth="yes" name="sv01"/>
      <point x="38" y="141"/>
      <point x="181" y="0"/>
      <point x="392" y="0" type="curve" smooth="yes"/>
      <point x="439.941" y="0"/>
      <point x="595.426" y="0"/>
    </contour>
    <contour>
      <point x="491.17" y="0" type="line"/>
      <point x="922.17" y="0" type="line" name="ab01"/>
      <point x="922.17" y="130" type="line" name="sv01"/>
      <point x="651.17" y="130" type="line"/>
      <point x="651.17" y="300" type="line" name="dv01"/>
      <point x="882.17" y="300" type="line"/>
      <point x="882.17" y="430" type="line"/>
      <point x="651.17" y="430" type="line" name="dv02"/>
      <point x="651.17" y="570" type="line" name="sv02"/>
      <point x="907.17" y="570" type="line"/>
      <point x="907.17" y="700" type="line" name="at01"/>
      <point x="491.17" y="700" type="line"/>
    </contour>
  </outline>
</glyph>
<glyph name="oe" format="2">
  <advance width="938"/>
  <unicode hex="0153"/>
  <anchor x="460" y="520" name="top"/>
  <anchor x="460" y="-20" name="bottom"/>
  <outline>
    <contour>
      <point x="281.76" y="-20" type="curve" smooth="yes" name="dv01"/>
      <point x="441.81" y="-20"/>
      <point x="542.69" y="80"/>
      <point x="542.69" y="255" type="curve" smooth="yes"/>
      <point x="542.69" y="431"/>
      <point x="437.93" y="520"/>
      <point x="281.76" y="520" type="curve" smooth="yes" name="at01"/>
      <point x="133.35" y="520"/>
      <point x="20.83" y="429"/>
      <point x="20.83" y="255" type="curve" smooth="yes"/>
      <point x="20.83" y="89"/>
      <point x="125.59" y="-20"/>
    </contour>
    <contour>
      <point x="278.85" y="103" type="curve" smooth="yes" name="dv02"/>
      <point x="214.83" y="103"/>
      <point x="180.88" y="155"/>
      <point x="180.88" y="254" type="curve" smooth="yes"/>
      <point x="180.88" y="349"/>
      <point x="213.86" y="396"/>
      <point x="279.82" y="396" type="curve" smooth="yes" name="sv01"/>
      <point x="347.72" y="396"/>
      <point x="382.64" y="347"/>
      <point x="382.64" y="252" type="curve" smooth="yes"/>
      <point x="382.64" y="156"/>
      <point x="345.78" y="103"/>
    </contour>
    <contour>
      <point x="549.06" y="332" type="line" name="sv02"/>
      <point x="554.88" y="367.896"/>
      <point x="591.74" y="397"/>
      <point x="648.667" y="397" type="curve" smooth="yes" name="sv01"/>
      <point x="699.41" y="397"/>
      <point x="742.767" y="373.875"/>
      <point x="747.91" y="332" type="curve" name="dv04"/>
    </contour>
    <contour>
      <point x="795.44" y="158" type="line"/>
      <point x="769.25" y="123"/>
      <point x="724.63" y="103"/>
      <point x="667.4" y="103" type="curve" smooth="yes" name="dv02"/>
      <point x="591.74" y="103"/>
      <point x="551" y="138"/>
      <point x="547.12" y="212" type="curve" name="sv04"/>
      <point x="910.87" y="212" type="line" name="dv03"/>
      <point x="922.117" y="404.026"/>
      <point x="823.867" y="520"/>
      <point x="649.94" y="520" type="curve" smooth="yes" name="at01"/>
      <point x="495.71" y="520"/>
      <point x="384.16" y="420"/>
      <point x="384.16" y="254" type="curve" smooth="yes" name="sv03"/>
      <point x="384.16" y="85"/>
      <point x="499.59" y="-20"/>
      <point x="662.55" y="-20" type="curve" smooth="yes" name="dv01"/>
      <point x="751.79" y="-20"/>
      <point x="829.39" y="12"/>
      <point x="877.89" y="73" type="curve"/>
    </contour>
  </outline>
</glyph>
<glyph name="florin" format="2">
  <advance width="533"/>
  <unicode hex="0192"/>
  <outline>
    <contour>
      <point x="-100" y="6" type="line"/>
      <point x="-38" y="-11"/>
      <point x="8" y="-17"/>
      <point x="56" y="-17" type="curve" smooth="yes"/>
      <point x="325" y="-17"/>
      <point x="302" y="171"/>
      <point x="302" y="353" type="curve" smooth="yes"/>
      <point x="302" y="490"/>
      <point x="289" y="597"/>
      <point x="389" y="597" type="curve" smooth="yes"/>
      <point x="420" y="597"/>
      <point x="465" y="587"/>
      <point x="519" y="569" type="curve"/>
      <point x="544" y="696" type="line"/>
      <point x="482" y="713"/>
      <point x="436" y="719"/>
      <point x="389" y="719" type="curve" smooth="yes"/>
      <point x="137" y="719"/>
      <point x="134" y="547"/>
      <point x="134" y="406" type="curve" smooth="yes"/>
      <point x="134" y="191"/>
      <point x="141" y="105"/>
      <point x="48" y="105" type="curve" smooth="yes"/>
      <point x="21" y="105"/>
      <point x="-20" y="112"/>
      <point x="-77" y="131" type="curve"/>
    </contour>
    <contour>
      <point x="19" y="372" type="line"/>
      <point x="485" y="372" type="line"/>
      <point x="485" y="494" type="line"/>
      <point x="19" y="494" type="line"/>
    </contour>
  </outline>
</glyph>
<glyph name="circumflex" format="2">
  <advance width="346"/>
  <unicode hex="02C6"/>
  <outline>
    <contour>
      <point x="17" y="550" type="line"/>
      <point x="125" y="550" type="line"/>
      <point x="174" y="638" type="line"/>
      <point x="222" y="550" type="line"/>
      <point x="330" y="550" type="line"/>
      <point x="228" y="701" type="line"/>
      <point x="119" y="701" type="line"/>
    </contour>
  </outline>
</glyph>
<glyph name="ogonekcomb" format="2">
  <advance width="209"/>
  <unicode hex="0328"/>
  <anchor x="207" y="0" name="_ogonek"/>
  <outline>
    <contour>
      <point x="208" y="-180" type="line"/>
      <point x="165" y="-166"/>
      <point x="144" y="-135"/>
      <point x="144" y="-101" type="curve" smooth="yes"/>
      <point x="144" y="-64"/>
      <point x="168" y="-21"/>
      <point x="207" y="3" type="curve"/>
      <point x="168" y="6" type="line"/>
      <point x="72" y="-11"/>
      <point x="24" y="-50"/>
      <point x="24" y="-103" type="curve" smooth="yes"/>
      <point x="24" y="-155"/>
      <point x="70" y="-193"/>
      <point x="144" y="-203" type="curve"/>
    </contour>
  </outline>
</glyph>
<glyph name="delta" format="2">
  <advance width="578"/>
  <unicode hex="03B4"/>
  <anchor x="289" y="721" name="topgr"/>
  <outline>
    <contour>
      <point x="286" y="103" type="curve" smooth="yes"/>
      <point x="216" y="103"/>
      <point x="185" y="143"/>
      <point x="185" y="220" type="curve" smooth="yes"/>
      <point x="185" y="304"/>
      <point x="221" y="345"/>
      <point x="290" y="345" type="curve" smooth="yes"/>
      <point x="359" y="345"/>
      <point x="393" y="305"/>
      <point x="393" y="226" type="curve" smooth="yes"/>
      <point x="393" y="144"/>
      <point x="357" y="103"/>
    </contour>
    <contour>
      <point x="290" y="-20" type="curve" smooth="yes"/>
      <point x="451" y="-20"/>
      <point x="558" y="75"/>
      <point x="558" y="226" type="curve" smooth="yes"/>
      <point x="558" y="376"/>
      <point x="452" y="467"/>
      <point x="291" y="467" type="curve" smooth="yes"/>
      <point x="123" y="467"/>
      <point x="20" y="369"/>
      <point x="20" y="226" type="curve" smooth="yes"/>
      <point x="20" y="82"/>
      <point x="124" y="-20"/>
    </contour>
    <contour>
      <point x="420" y="443" type="line"/>
      <point x="357.359" y="467.782"/>
      <point x="256" y="507"/>
      <point x="256" y="559" type="curve" smooth="yes"/>
      <point x="256" y="581"/>
      <point x="272" y="597"/>
      <point x="313" y="597" type="curve" smooth="yes"/>
      <point x="356" y="597"/>
      <point x="402" y="579"/>
      <point x="429" y="552" type="curve"/>
      <point x="514" y="637" type="line"/>
      <point x="466" y="688"/>
      <point x="389" y="720"/>
      <point x="299" y="720" type="curve" smooth="yes"/>
      <point x="176" y="720"/>
      <point x="91" y="660"/>
      <point x="91" y="574" type="curve" smooth="yes"/>
      <point x="91" y="493"/>
      <point x="166" y="445"/>
      <point x="283" y="438" type="curve"/>
    </contour>
  </outline>
</glyph>
<glyph name="eta" format="2">
  <advance width="601"/>
  <unicode hex="03B7"/>
  <anchor x="290" y="520" name="topgr"/>
  <outline>
    <contour>
      <point x="69" y="0" type="line"/>
      <point x="234" y="0" type="line"/>
      <point x="234" y="384" type="line" smooth="yes"/>
      <point x="234" y="482"/>
      <point x="168" y="520"/>
      <point x="13" y="520" type="curve"/>
      <point x="13" y="397" type="line"/>
      <point x="50" y="397"/>
      <point x="69" y="382"/>
      <point x="69" y="322" type="curve" smooth="yes"/>
    </contour>
    <contour>
      <point x="391" y="-200" type="line" name="ab01"/>
      <point x="556" y="-200" type="line"/>
      <point x="556" y="304" type="line" smooth="yes"/>
      <point x="556" y="448"/>
      <point x="496.857" y="520"/>
      <point x="393.357" y="520" type="curve" smooth="yes" name="at01"/>
      <point x="289.857" y="520"/>
      <point x="229.729" y="448"/>
      <point x="211" y="370" type="curve"/>
      <point x="213" y="287" type="line"/>
      <point x="234" y="217" type="line" name="iv01"/>
      <point x="234" y="312"/>
      <point x="255.321" y="396"/>
      <point x="325.099" y="396" type="curve" smooth="yes" name="sv01"/>
      <point x="365.802" y="396"/>
      <point x="391" y="367"/>
      <point x="391" y="271" type="curve" smooth="yes"/>
    </contour>
  </outline>
</glyph>
<glyph name="xi" format="2">
  <advance width="520"/>
  <unicode hex="03BE"/>
  <outline>
    <contour>
      <point x="426" y="581" type="line"/>
      <point x="426" y="701" type="line"/>
      <point x="53" y="701" type="line"/>
      <point x="53" y="581" type="line"/>
    </contour>
    <contour>
      <point x="459.697" y="-200" type="line"/>
      <point x="480.133" y="-175"/>
      <point x="508" y="-131"/>
      <point x="508" y="-71" type="curve" smooth="yes"/>
      <point x="508" y="24"/>
      <point x="431.882" y="103"/>
      <point x="298.675" y="103" type="curve" smooth="yes"/>
      <point x="224.561" y="103"/>
      <point x="185.5" y="129"/>
      <point x="185.5" y="178" type="curve" smooth="yes"/>
      <point x="185.5" y="255"/>
      <point x="240.616" y="269"/>
      <point x="424" y="269" type="curve"/>
      <point x="424" y="385" type="line"/>
      <point x="291.673" y="385"/>
      <point x="221.5" y="419"/>
      <point x="221.5" y="478" type="curve" smooth="yes"/>
      <point x="221.5" y="532"/>
      <point x="279.643" y="560"/>
      <point x="425" y="581" type="curve"/>
      <point x="409" y="642" type="line"/>
      <point x="211.28" y="638.958"/>
      <point x="56.5" y="557.847"/>
      <point x="56.5" y="456.458" type="curve" smooth="yes"/>
      <point x="56.5" y="392.583"/>
      <point x="115.328" y="350"/>
      <point x="228" y="333" type="curve"/>
      <point x="96.317" y="328"/>
      <point x="20.5" y="291.727"/>
      <point x="20.5" y="177.922" type="curve" smooth="yes"/>
      <point x="20.5" y="55.21"/>
      <point x="106.181" y="-20"/>
      <point x="246.197" y="-20" type="curve" smooth="yes"/>
      <point x="336.057" y="-20"/>
      <point x="358" y="-50"/>
      <point x="358" y="-97" type="curve" smooth="yes"/>
      <point x="358" y="-143"/>
      <point x="337" y="-166"/>
      <point x="312" y="-200" type="curve"/>
    </contour>
  </outline>
</glyph>
<glyph name="pi" format="2">
  <advance width="645"/>
  <unicode hex="03C0"/>
  <anchor x="322" y="520" name="topgr"/>
  <outline>
    <contour>
      <point x="85" y="0" type="line"/>
      <point x="250" y="0" type="line"/>
      <point x="250" y="380" type="line"/>
      <point x="383" y="380" type="line"/>
      <point x="383" y="178.442" type="line" smooth="yes"/>
      <point x="383" y="37.045"/>
      <point x="429.087" y="0"/>
      <point x="605" y="0" type="curve"/>
      <point x="605" y="120" type="line"/>
      <point x="568" y="120"/>
      <point x="548" y="132.246"/>
      <point x="548" y="182.174" type="curve" smooth="yes"/>
      <point x="548" y="380" type="line"/>
      <point x="616" y="380" type="line"/>
      <point x="616" y="500" type="line"/>
      <point x="19" y="500" type="line"/>
      <point x="19" y="380" type="line"/>
      <point x="85" y="380" type="line"/>
    </contour>
  </outline>
</glyph>
<glyph name="sigma" format="2">
  <advance width="629"/>
  <unicode hex="03C3"/>
  <anchor x="401" y="-3" name="ogonek"/>
  <anchor x="292" y="-20" name="bottom"/>
  <anchor x="292" y="520" name="topgr"/>
  <outline>
    <contour>
      <point x="23" y="244.815" type="curve" smooth="yes"/>
      <point x="23" y="84.963"/>
      <point x="129.796" y="-20"/>
      <point x="289" y="-20" type="curve" smooth="yes" name="dv01"/>
      <point x="452.16" y="-20"/>
      <point x="555" y="76.296"/>
      <point x="555" y="244.815" type="curve" smooth="yes"/>
      <point x="555" y="414.296"/>
      <point x="448.204" y="500"/>
      <point x="289" y="500" type="curve" smooth="yes" name="at01"/>
      <point x="137.706" y="500"/>
      <point x="23" y="412.37"/>
    </contour>
    <contour>
      <point x="286.087" y="100" type="curve" smooth="yes" name="dv02"/>
      <point x="221.99" y="100"/>
      <point x="188" y="149.693"/>
      <point x="188" y="244.3" type="curve" smooth="yes"/>
      <point x="188" y="335.085"/>
      <point x="221.019" y="380"/>
      <point x="287.058" y="380" type="curve" smooth="yes" name="sv01"/>
      <point x="355.038" y="380"/>
      <point x="390" y="333.174"/>
      <point x="390" y="242.389" type="curve" smooth="yes"/>
      <point x="390" y="150.648"/>
      <point x="353.096" y="100"/>
    </contour>
    <contour>
      <point x="359" y="376" type="line"/>
      <point x="615" y="376" type="line"/>
      <point x="615" y="500" type="line"/>
      <point x="290" y="500" type="line"/>
    </contour>
  </outline>
</glyph>
<glyph name="Njecyr" format="2">
  <advance width="970"/>
  <unicode hex="040A"/>
  <outline>
    <contour>
      <point x="58" y="0" type="line" name="ab01"/>
      <point x="224" y="0" type="line"/>
      <point x="224" y="320" type="line" name="dv01"/>
      <point x="462" y="320" type="line"/>
      <point x="462" y="0" type="line" name="ab02"/>
      <point x="628" y="0" type="line"/>
      <point x="628" y="700" type="line" name="at01"/>
      <point x="462" y="700" type="line"/>
      <point x="462" y="450" type="line"/>
      <point x="224" y="450" type="line" name="dv02"/>
      <point x="224" y="700" type="line" name="at02"/>
      <point x="58" y="700" type="line"/>
    </contour>
    <contour>
      <point x="495" y="0" type="line"/>
      <point x="692" y="0" type="line" smooth="yes"/>
      <point x="881" y="0"/>
      <point x="941" y="94.337"/>
      <point x="941" y="222.289" type="curve" smooth="yes"/>
      <point x="941" y="350.241"/>
      <point x="881" y="450"/>
      <point x="692" y="450" type="curve" smooth="yes"/>
      <point x="496" y="450" type="line"/>
      <point x="511" y="320" type="line"/>
      <point x="623" y="320" type="line" smooth="yes"/>
      <point x="738" y="320"/>
      <point x="775" y="305.29"/>
      <point x="775" y="226.839" type="curve" smooth="yes"/>
      <point x="775" y="158.194"/>
      <point x="746" y="130"/>
      <point x="623" y="130" type="curve" smooth="yes"/>
      <point x="607" y="130" type="line"/>
    </contour>
  </outline>
</glyph>
<glyph name="Ereversedcyr" format="2">
  <advance width="694"/>
  <unicode hex="042D"/>
  <anchor x="330" y="719" name="top"/>
  <outline>
    <contour>
      <point x="546" y="293" type="line"/>
      <point x="546" y="423" type="line"/>
      <point x="201" y="423" type="line"/>
      <point x="201" y="293" type="line"/>
    </contour>
    <contour>
      <point x="33" y="107" type="line"/>
      <point x="104" y="28"/>
      <point x="179" y="-20"/>
      <point x="299" y="-20" type="curve" smooth="yes"/>
      <point x="517" y="-20"/>
      <point x="662" y="139"/>
      <point x="662" y="360" type="curve" smooth="yes"/>
      <point x="662" y="573"/>
      <point x="527" y="720"/>
      <point x="314" y="720" type="curve" smooth="yes"/>
      <point x="190" y="720"/>
      <point x="97" y="670"/>
      <point x="36" y="596" type="curve"/>
      <point x="131" y="501" type="line"/>
      <point x="179.732" y="559"/>
      <point x="244.375" y="589"/>
      <point x="311.008" y="589" type="curve" smooth="yes"/>
      <point x="425.378" y="589"/>
      <point x="494" y="499"/>
      <point x="494" y="358" type="curve" smooth="yes"/>
      <point x="494" y="209"/>
      <point x="417.418" y="110"/>
      <point x="305.033" y="110" type="curve" smooth="yes"/>
      <point x="239.391" y="110"/>
      <point x="176.734" y="144"/>
      <point x="128" y="202" type="curve"/>
    </contour>
  </outline>
</glyph>
<glyph name="gecyr" format="2">
  <advance width="431"/>
  <unicode hex="0433"/>
  <anchor x="231" y="520" name="top"/>
  <anchor x="231" y="-20" name="bottom"/>
  <outline>
    <contour>
      <point x="54" y="0" type="line"/>
      <point x="219" y="0" type="line"/>
      <point x="219" y="380" type="line"/>
      <point x="414" y="380" type="line"/>
      <point x="414" y="500" type="line"/>
      <point x="54" y="500" type="line"/>
    </contour>
  </outline>
</glyph>
<glyph name="pecyr" format="2">
  <advance width="618"/>
  <unicode hex="043F"/>
  <anchor x="309" y="-20" name="bottom"/>
  <anchor x="309" y="520" name="top"/>
  <outline>
    <contour>
      <point x="53" y="0" type="line"/>
      <point x="218" y="0" type="line"/>
      <point x="218" y="370" type="line"/>
      <point x="400" y="370" type="line"/>
      <point x="400" y="0" type="line"/>
      <point x="565" y="0" type="line"/>
      <point x="565" y="500" type="line"/>
      <point x="53" y="500" type="line"/>
    </contour>
  </outline>
</glyph>
<glyph name="yukrcyr" format="2">
  <advance width="272"/>
  <unicode hex="0457"/>
  <anchor x="136" y="-20" name="bottom"/>
  <anchor x="212" y="-3" name="ogonek"/>
  <anchor x="136" y="689" name="top"/>
  <outline>
    <contour>
      <point x="54" y="0" type="line" name="ab01"/>
      <point x="219" y="0" type="line"/>
      <point x="219" y="500" type="line"/>
      <point x="54" y="500" type="line" name="av01"/>
    </contour>
    <contour>
      <point x="-47.197" y="631" type="curve" smooth="yes"/>
      <point x="-47.197" y="595.992"/>
      <point x="-18.638" y="552.693"/>
      <point x="35.716" y="552.693" type="curve" smooth="yes" name="dv01"/>
      <point x="88.228" y="552.693"/>
      <point x="115.866" y="592.307"/>
      <point x="115.866" y="631" type="curve" smooth="yes"/>
      <point x="115.866" y="672.457"/>
      <point x="88.228" y="709.307"/>
      <point x="35.716" y="709.307" type="curve" smooth="yes" name="dv02"/>
      <point x="-18.638" y="709.307"/>
      <point x="-47.197" y="667.85"/>
    </contour>
    <contour>
      <point x="155.134" y="631" type="curve" smooth="yes"/>
      <point x="155.134" y="595.992"/>
      <point x="182.772" y="552.693"/>
      <point x="237.126" y="552.693" type="curve" smooth="yes" name="dv01.1"/>
      <point x="289.638" y="552.693"/>
      <point x="318.197" y="592.307"/>
      <point x="318.197" y="631" type="curve" smooth="yes"/>
      <point x="318.197" y="672.457"/>
      <point x="289.638" y="709.307"/>
      <point x="237.126" y="709.307" type="curve" smooth="yes" name="dv02.1"/>
      <point x="182.772" y="709.307"/>
      <point x="155.134" y="667.85"/>
    </contour>
  </outline>
</glyph>
<glyph name="f_f" format="2">
  <advance width="806"/>
  <unicode hex="FB00"/>
  <outline>
    <contour>
      <point x="89" y="0" type="line" name="ab01"/>
      <point x="254" y="0" type="line"/>
      <point x="254" y="380" type="line" name="sv01"/>
      <point x="390" y="380" type="line"/>
      <point x="390" y="500" type="line" name="sv02"/>
      <point x="254" y="500" type="line"/>
      <point x="254" y="547" type="line" smooth="yes"/>
      <point x="254" y="593"/>
      <point x="270" y="627"/>
      <point x="312" y="627" type="curve" smooth="yes" name="dv01"/>
      <point x="324" y="627"/>
      <point x="348" y="624"/>
      <point x="366" y="617" type="curve"/>
      <point x="396" y="728" type="line"/>
      <point x="337" y="746"/>
      <point x="307" y="751"/>
      <point x="273" y="751" type="curve" smooth="yes" name="dv02"/>
      <point x="158" y="751"/>
      <point x="89" y="694"/>
      <point x="89" y="588" type="curve" smooth="yes"/>
      <point x="89" y="500" type="line" name="dv04"/>
      <point x="12" y="500" type="line"/>
      <point x="12" y="380" type="line"/>
      <point x="89" y="380" type="line" name="dv03"/>
    </contour>
    <contour>
      <point x="482" y="0" type="line" name="ab01"/>
      <point x="647" y="0" type="line"/>
      <point x="647" y="380" type="line" name="sv01"/>
      <point x="783" y="380" type="line"/>
      <point x="783" y="500" type="line" name="sv02"/>
      <point x="647" y="500" type="line"/>
      <point x="647" y="547" type="line" smooth="yes"/>
      <point x="647" y="593"/>
      <point x="663" y="627"/>
      <point x="705" y="627" type="curve" smooth="yes" name="dv01"/>
      <point x="717" y="627"/>
      <point x="741" y="624"/>
      <point x="759" y="617" type="curve"/>
      <point x="789" y="728" type="line"/>
      <point x="730" y="746"/>
      <point x="700" y="751"/>
      <point x="666" y="751" type="curve" smooth="yes" name="dv02"/>
      <point x="551" y="751"/>
      <point x="482" y="694"/>
      <point x="482" y="588" type="curve" smooth="yes"/>
      <point x="482" y="500" type="line" name="dv04"/>
      <point x="405" y="500" type="line"/>
      <point x="405" y="380" type="line"/>
      <point x="482" y="380" type="line" name="dv03"/>
    </contour>
    <contour>
      <point x="249" y="380" type="line"/>
      <point x="488" y="380" type="line"/>
      <point x="488" y="500" type="line"/>
      <point x="249" y="500" type="line"/>
    </contour>
  </outline>
</glyph>
<glyph name="Djecyr.ss12" format="2">
  <advance width="783"/>
  <outline>
    <contour>
      <point x="173" y="0" type="line"/>
      <point x="339" y="0" type="line"/>
      <point x="339" y="176" type="line" smooth="yes"/>
      <point x="339" y="274"/>
      <point x="405" y="346"/>
      <point x="474" y="346" type="curve" smooth="yes"/>
      <point x="535" y="346"/>
      <point x="578" y="299"/>
      <point x="578" y="186" type="curve" smooth="yes"/>
      <point x="578" y="48"/>
      <point x="532" y="-19"/>
      <point x="427" y="-19" type="curve"/>
      <point x="427" y="-149" type="line"/>
      <point x="661" y="-149"/>
      <point x="744" y="-11"/>
      <point x="744" y="190" type="curve" smooth="yes"/>
      <point x="744" y="363"/>
      <point x="659" y="466"/>
      <point x="525" y="466" type="curve" smooth="yes"/>
      <point x="431" y="466"/>
      <point x="371" y="416"/>
      <point x="339" y="352" type="curve"/>
      <point x="339" y="570" type="line"/>
      <point x="564" y="570" type="line"/>
      <point x="564" y="700" type="line"/>
      <point x="21" y="700" type="line"/>
      <point x="21" y="570" type="line"/>
      <point x="173" y="570" type="line"/>
    </contour>
  </outline>
</glyph>
<glyph name="Eng.ss09" format="2">
  <advance width="732"/>
  <anchor x="366" y="719" name="top"/>
  <anchor x="388" y="-197" name="bottom"/>
  <outline>
    <contour>
      <point x="57.5" y="0" type="line"/>
      <point x="222.5" y="0" type="line" name="ab01"/>
      <point x="222.5" y="439" type="line" name="iv01"/>
      <point x="518.5" y="0" type="line" name="ab02"/>
      <point x="674.5" y="130.106" type="line"/>
      <point x="674.5" y="700" type="line" name="at01"/>
      <point x="509.5" y="700" type="line"/>
      <point x="509.5" y="261" type="line" name="iv02"/>
      <point x="213.5" y="700" type="line" name="at02"/>
      <point x="57.5" y="700" type="line"/>
    </contour>
    <contour>
      <point x="206.25" y="-9" type="line"/>
      <point x="231.199" y="-149"/>
      <point x="299.955" y="-224"/>
      <point x="436.513" y="-224" type="curve" smooth="yes"/>
      <point x="601.719" y="-224"/>
      <point x="675.25" y="-129"/>
      <point x="675.25" y="48" type="curve" smooth="yes"/>
      <point x="675.25" y="496" type="line"/>
      <point x="510.75" y="496" type="line"/>
      <point x="510.75" y="45" type="line" smooth="yes"/>
      <point x="510.75" y="-57"/>
      <point x="491.521" y="-93"/>
      <point x="439.953" y="-93" type="curve" smooth="yes"/>
      <point x="396.251" y="-93"/>
      <point x="375.275" y="-68"/>
      <point x="367.25" y="-9" type="curve"/>
    </contour>
  </outline>
</glyph>
<glyph name="J.ss12" format="2">
  <advance width="480"/>
  <anchor x="349" y="719" name="top"/>
  <anchor x="200" y="-20" name="bottom"/>
  <outline>
    <contour>
      <point x="9" y="23" type="line"/>
      <point x="55.944" y="-3"/>
      <point x="110.878" y="-20"/>
      <point x="199.772" y="-20" type="curve" smooth="yes"/>
      <point x="352.589" y="-20"/>
      <point x="426.5" y="62"/>
      <point x="426.5" y="232" type="curve" smooth="yes"/>
      <point x="426.5" y="700" type="line"/>
      <point x="261.5" y="700" type="line"/>
      <point x="261.5" y="239" type="line" smooth="yes"/>
      <point x="261.5" y="143"/>
      <point x="240.456" y="110"/>
      <point x="176.321" y="110" type="curve" smooth="yes"/>
      <point x="122.208" y="110"/>
      <point x="79.118" y="119"/>
      <point x="23" y="140" type="curve"/>
    </contour>
  </outline>
</glyph>
<glyph name="aogonek.ss01" format="2">
  <advance width="606"/>
  <anchor x="300" y="520" name="top"/>
  <anchor x="294" y="-20" name="bottom"/>
  <outline>
    <contour>
      <point x="235" y="-20" type="curve" smooth="yes" name="dv01"/>
      <point x="359" y="-20"/>
      <point x="433" y="90"/>
      <point x="433" y="257" type="curve" smooth="yes"/>
      <point x="433" y="421"/>
      <point x="361" y="520"/>
      <point x="232" y="520" type="curve" smooth="yes" name="at01"/>
      <point x="97" y="520"/>
      <point x="20" y="411"/>
      <point x="20" y="259" type="curve" smooth="yes"/>
      <point x="20" y="99"/>
      <point x="106" y="-20"/>
    </contour>
    <contour>
      <point x="294.517" y="106" type="curve" smooth="yes" name="dv02"/>
      <point x="231.218" y="106"/>
      <point x="185" y="168"/>
      <point x="185" y="256" type="curve" smooth="yes"/>
      <point x="185" y="341"/>
      <point x="227.199" y="393"/>
      <point x="290.498" y="393" type="curve" smooth="yes" name="sv01"/>
      <point x="355.806" y="393"/>
      <point x="397" y="337"/>
      <point x="397" y="251" type="curve" smooth="yes"/>
      <point x="397" y="166"/>
      <point x="356.81" y="106"/>
    </contour>
    <contour>
      <point x="610" y="117" type="line"/>
      <point x="598.872" y="111.385"/>
      <point x="583.014" y="107"/>
      <point x="574.963" y="107" type="curve" smooth="yes" name="dv02"/>
      <point x="565.783" y="107"/>
      <point x="562" y="127"/>
      <point x="562" y="193" type="curve" smooth="yes"/>
      <point x="562" y="500" type="line" name="ab01"/>
      <point x="397" y="500" type="line"/>
      <point x="397" y="132" type="line" smooth="yes"/>
      <point x="397" y="33"/>
      <point x="439.356" y="-20"/>
      <point x="529.881" y="-20" type="curve" smooth="yes" name="dv01"/>
      <point x="562.271" y="-20"/>
      <point x="593" y="-11"/>
      <point x="640" y="5" type="curve"/>
    </contour>
    <contour>
      <point x="626" y="-183" type="line"/>
      <point x="583" y="-169"/>
      <point x="562" y="-138"/>
      <point x="562" y="-104" type="curve" smooth="yes"/>
      <point x="562" y="-67"/>
      <point x="586" y="-24"/>
      <point x="625" y="0" type="curve"/>
      <point x="586" y="3" type="line"/>
      <point x="490" y="-14"/>
      <point x="442" y="-53"/>
      <point x="442" y="-106" type="curve" smooth="yes"/>
      <point x="442" y="-158"/>
      <point x="488" y="-196"/>
      <point x="562" y="-206" type="curve"/>
    </contour>
  </outline>
</glyph>
<glyph name="austral.osf" format="2">
  <advance width="718"/>
  <outline>
    <contour>
      <point x="18" y="135" type="line"/>
      <point x="701" y="135" type="line"/>
      <point x="701" y="193" type="line"/>
      <point x="18" y="193" type="line"/>
    </contour>
    <contour>
      <point x="18" y="244" type="line"/>
      <point x="701" y="244" type="line"/>
      <point x="701" y="302" type="line"/>
      <point x="18" y="302" type="line"/>
    </contour>
    <contour>
      <point x="79" y="0" type="line"/>
      <point x="255" y="0" type="line"/>
      <point x="359" y="395" type="line"/>
      <point x="463" y="0" type="line"/>
      <point x="639" y="0" type="line"/>
      <point x="467" y="540" type="line"/>
      <point x="261" y="540" type="line"/>
    </contour>
  </outline>
</glyph>
<glyph name="cent.ss09" format="2">
  <advance width="611"/>
  <outline>
    <contour>
      <point x="295" y="610" type="line"/>
      <point x="345" y="610" type="line"/>
      <point x="345" y="730" type="line"/>
      <point x="295" y="730" type="line"/>
    </contour>
    <contour>
      <point x="296" y="-31" type="line"/>
      <point x="344" y="-31" type="line"/>
      <point x="344" y="90" type="line"/>
      <point x="296" y="89" type="line"/>
    </contour>
    <contour>
      <point x="408" y="268" type="line"/>
      <point x="404.985" y="233"/>
      <point x="373.832" y="201"/>
      <point x="319.566" y="201" type="curve" smooth="yes"/>
      <point x="245.202" y="201"/>
      <point x="204" y="256.743"/>
      <point x="204" y="348.973" type="curve" smooth="yes"/>
      <point x="204" y="439.176"/>
      <point x="245.2" y="501"/>
      <point x="318.556" y="501" type="curve" smooth="yes"/>
      <point x="373.824" y="501"/>
      <point x="403.971" y="468.957"/>
      <point x="410" y="434" type="curve"/>
      <point x="572" y="434" type="line"/>
      <point x="554" y="552.73"/>
      <point x="454" y="621"/>
      <point x="314" y="621" type="curve" smooth="yes"/>
      <point x="142" y="621"/>
      <point x="39" y="502"/>
      <point x="39" y="356" type="curve" smooth="yes"/>
      <point x="39" y="201"/>
      <point x="142" y="81"/>
      <point x="313" y="81" type="curve" smooth="yes"/>
      <point x="453" y="81"/>
      <point x="560" y="152"/>
      <point x="570" y="268" type="curve"/>
    </contour>
  </outline>
</glyph>
<glyph name="eth_i.ss11" format="2">
  <advance width="941"/>
  <outline>
    <contour>
      <point x="558" y="256.68" type="curve" smooth="yes"/>
      <point x="558" y="388.9"/>
      <point x="491.96" y="513.61"/>
      <point x="396.29" y="609.8" type="curve"/>
      <point x="511.143" y="650.525" type="line" smooth="yes"/>
      <point x="577.082" y="673.906"/>
      <point x="574.403" y="713.765"/>
      <point x="622.513" y="713.765" type="curve" smooth="yes"/>
      <point x="660.502" y="713.765"/>
      <point x="667.903" y="673.575"/>
      <point x="667.903" y="643.475" type="curve" smooth="yes"/>
      <point x="667.903" y="606.135"/>
      <point x="697.583" y="561.135"/>
      <point x="754.073" y="561.135" type="curve" smooth="yes" name="dv01"/>
      <point x="808.643" y="561.135"/>
      <point x="837.373" y="602.305"/>
      <point x="837.373" y="658.587" type="curve" smooth="yes"/>
      <point x="837.373" y="743.873"/>
      <point x="771.404" y="813.525"/>
      <point x="680.901" y="813.525" type="curve" smooth="yes"/>
      <point x="590.903" y="813.525"/>
      <point x="535.096" y="743.401"/>
      <point x="485.143" y="721.525" type="curve" smooth="yes"/>
      <point x="341.98" y="658.83" type="line"/>
      <point x="282.22" y="707.27"/>
      <point x="215.01" y="745.3"/>
      <point x="147" y="769" type="curve"/>
      <point x="100" y="666" type="line"/>
      <point x="130.66" y="652.37"/>
      <point x="172.87" y="631.6"/>
      <point x="215.8" y="605.45" type="curve"/>
      <point x="106" y="567" type="line"/>
      <point x="132" y="496" type="line"/>
      <point x="276.83" y="564.33" type="line"/>
      <point x="332.61" y="522.41"/>
      <point x="380.17" y="472.14"/>
      <point x="392.46" y="417.91" type="curve"/>
      <point x="360.44" y="456.35"/>
      <point x="324.19" y="471"/>
      <point x="262.11" y="471" type="curve" smooth="yes"/>
      <point x="126" y="471"/>
      <point x="26" y="371"/>
      <point x="26" y="229" type="curve" smooth="yes"/>
      <point x="26" y="92"/>
      <point x="121.34" y="-20"/>
      <point x="292.95" y="-20" type="curve" smooth="yes"/>
      <point x="463.61" y="-20"/>
      <point x="558" y="98.27"/>
    </contour>
    <contour>
      <point x="290.22" y="104" type="curve" smooth="yes"/>
      <point x="224.66" y="104"/>
      <point x="191" y="148"/>
      <point x="191" y="221" type="curve" smooth="yes"/>
      <point x="191" y="302"/>
      <point x="232.64" y="348"/>
      <point x="297.31" y="348" type="curve" smooth="yes"/>
      <point x="358.44" y="348"/>
      <point x="393" y="306"/>
      <point x="393" y="229" type="curve" smooth="yes"/>
      <point x="393" y="148"/>
      <point x="354.9" y="104"/>
    </contour>
    <contour>
      <point x="672" y="0" type="line" name="ab01"/>
      <point x="837" y="0" type="line"/>
      <point x="837" y="500" type="line"/>
      <point x="672" y="500" type="line" name="av01"/>
    </contour>
    <contour>
      <point x="586" y="380" type="line"/>
      <point x="923" y="380" type="line"/>
      <point x="923" y="500" type="line"/>
      <point x="586" y="500" type="line"/>
    </contour>
    <contour>
      <point x="586" y="0" type="line"/>
      <point x="923" y="0" type="line"/>
      <point x="923" y="120" type="line"/>
      <point x="586" y="120" type="line"/>
    </contour>
  </outline>
</glyph>
<glyph name="five.osf.ss09" format="2">
  <advance width="594"/>
  <outline>
    <contour>
      <point x="27" y="48" type="line"/>
      <point x="52" y="-93"/>
      <point x="148" y="-170"/>
      <point x="299" y="-170" type="curve" smooth="yes"/>
      <point x="464" y="-170"/>
      <point x="564" y="-78"/>
      <point x="564" y="74" type="curve" smooth="yes"/>
      <point x="564" y="216"/>
      <point x="476" y="306"/>
      <point x="342" y="306" type="curve" smooth="yes"/>
      <point x="286" y="306"/>
      <point x="245" y="290"/>
      <point x="222" y="267" type="curve"/>
      <point x="244" y="420" type="line"/>
      <point x="495" y="420" type="line"/>
      <point x="514" y="550" type="line"/>
      <point x="98" y="550" type="line"/>
      <point x="39" y="134" type="line"/>
      <point x="203" y="134" type="line"/>
      <point x="222" y="175"/>
      <point x="257" y="197"/>
      <point x="304" y="197" type="curve" smooth="yes"/>
      <point x="366" y="197"/>
      <point x="398" y="158"/>
      <point x="398" y="82" type="curve" smooth="yes"/>
      <point x="398" y="4"/>
      <point x="364" y="-40"/>
      <point x="297" y="-40" type="curve" smooth="yes"/>
      <point x="242" y="-40"/>
      <point x="206" y="-10"/>
      <point x="193" y="48" type="curve"/>
    </contour>
  </outline>
</glyph>
<glyph name="four.osf" format="2">
  <advance width="685"/>
  <outline>
    <contour>
      <point x="16" y="-1" type="line"/>
      <point x="366" y="-1" type="line"/>
      <point x="366" y="-152" type="line"/>
      <point x="532" y="-152" type="line"/>
      <point x="532" y="-1" type="line"/>
      <point x="658" y="-1" type="line"/>
      <point x="658" y="129" type="line"/>
      <point x="532" y="129" type="line"/>
      <point x="532" y="548" type="line"/>
      <point x="335" y="548" type="line"/>
      <point x="16" y="75" type="line"/>
    </contour>
    <contour>
      <point x="204" y="129" type="line"/>
      <point x="366" y="369" type="line"/>
      <point x="366" y="129" type="line"/>
    </contour>
  </outline>
</glyph>
<glyph name="g.ss12" format="2">
  <advance width="606"/>
  <anchor x="279" y="-220" name="bottom"/>
  <anchor x="288" y="520" name="top"/>
  <outline>
    <contour>
      <point x="239" y="-20" type="curve" smooth="yes"/>
      <point x="348" y="-20"/>
      <point x="419" y="90"/>
      <point x="419" y="255" type="curve" smooth="yes"/>
      <point x="419" y="421"/>
      <point x="350" y="520"/>
      <point x="233" y="520" type="curve" smooth="yes"/>
      <point x="94" y="520"/>
      <point x="20" y="411"/>
      <point x="20" y="255" type="curve" smooth="yes"/>
      <point x="20" y="99"/>
      <point x="103" y="-20"/>
    </contour>
    <contour>
      <point x="290" y="106" type="curve" smooth="yes"/>
      <point x="230" y="106"/>
      <point x="186" y="168"/>
      <point x="186" y="256" type="curve" smooth="yes"/>
      <point x="186" y="341"/>
      <point x="226" y="393"/>
      <point x="291" y="393" type="curve" smooth="yes"/>
      <point x="348" y="393"/>
      <point x="387" y="337"/>
      <point x="387" y="257" type="curve" smooth="yes"/>
      <point x="387" y="166"/>
      <point x="349" y="106"/>
    </contour>
    <contour>
      <point x="45" y="-125" type="line"/>
      <point x="96" y="-186"/>
      <point x="174" y="-220"/>
      <point x="261" y="-220" type="curve" smooth="yes"/>
      <point x="445" y="-220"/>
      <point x="552" y="-140"/>
      <point x="552" y="32" type="curve" smooth="yes"/>
      <point x="552" y="500" type="line"/>
      <point x="388" y="500" type="line"/>
      <point x="388" y="42" type="line" smooth="yes"/>
      <point x="388" y="-60"/>
      <point x="350" y="-97"/>
      <point x="242" y="-97" type="curve" smooth="yes"/>
      <point x="179" y="-97"/>
      <point x="120" y="-75"/>
      <point x="54" y="-22" type="curve"/>
    </contour>
  </outline>
</glyph>
<glyph name="l.ss11" format="2">
  <advance width="272"/>
  <anchor x="136" y="750" name="top"/>
  <anchor x="136" y="-20" name="bottom"/>
  <anchor x="262" y="700" name="topright"/>
  <outline>
    <contour>
      <point x="54" y="0" type="line" name="av01"/>
      <point x="219" y="0" type="line"/>
      <point x="219" y="700" type="line" name="av02"/>
      <point x="54" y="700" type="line"/>
    </contour>
  </outline>
</glyph>
<glyph name="manat.ss09" format="2">
  <advance width="747"/>
  <outline>
    <contour>
      <point x="316" y="110" type="line"/>
      <point x="437" y="163" type="line"/>
      <point x="437" y="756" type="line"/>
      <point x="316" y="703" type="line"/>
    </contour>
    <contour>
      <point x="222" y="0" type="line"/>
      <point x="222" y="315" type="line" smooth="yes"/>
      <point x="222" y="432"/>
      <point x="272.274" y="490"/>
      <point x="374.179" y="490" type="curve" smooth="yes" name="dv02"/>
      <point x="474.726" y="490"/>
      <point x="525" y="432"/>
      <point x="525" y="315" type="curve" smooth="yes"/>
      <point x="525" y="0" type="line"/>
      <point x="691" y="0" type="line" name="at02"/>
      <point x="691" y="338" type="line" smooth="yes"/>
      <point x="691" y="511"/>
      <point x="567.432" y="620"/>
      <point x="371.784" y="620" type="curve" smooth="yes" name="dv01"/>
      <point x="176.135" y="620"/>
      <point x="56" y="512"/>
      <point x="56" y="338" type="curve" smooth="yes"/>
      <point x="56" y="0" type="line" name="at01"/>
    </contour>
  </outline>
</glyph>
<glyph name="s.ss09" format="2">
  <advance width="510"/>
  <anchor x="265" y="-20" name="bottom"/>
  <anchor x="245" y="520" name="top"/>
  <outline>
    <contour>
      <point x="28" y="149" type="line"/>
      <point x="41" y="39.355"/>
      <point x="134" y="-21"/>
      <point x="260" y="-21" type="curve" smooth="yes"/>
      <point x="392" y="-21"/>
      <point x="472" y="44.388"/>
      <point x="472" y="152.378" type="curve" smooth="yes"/>
      <point x="472" y="242.535"/>
      <point x="415.789" y="299.769"/>
      <point x="298.331" y="312" type="curve" smooth="yes"/>
      <point x="271.744" y="314.769"/>
      <point x="188" y="321.304"/>
      <point x="188" y="365.374" type="curve" smooth="yes"/>
      <point x="188" y="385.31"/>
      <point x="206.931" y="400"/>
      <point x="240.586" y="400" type="curve" smooth="yes"/>
      <point x="278.448" y="400"/>
      <point x="301.586" y="381.633"/>
      <point x="310" y="350" type="curve"/>
      <point x="472" y="350" type="line"/>
      <point x="459" y="459.645"/>
      <point x="376" y="520"/>
      <point x="250" y="520" type="curve" smooth="yes"/>
      <point x="116" y="520"/>
      <point x="28" y="453.207"/>
      <point x="28" y="347.535" type="curve" smooth="yes"/>
      <point x="28" y="257.813"/>
      <point x="91.718" y="197.442"/>
      <point x="209.922" y="185" type="curve" smooth="yes"/>
      <point x="234.228" y="182.441"/>
      <point x="312" y="175.847"/>
      <point x="312" y="133.837" type="curve" smooth="yes"/>
      <point x="312" y="112.32"/>
      <point x="292.521" y="99"/>
      <point x="259.714" y="99" type="curve" smooth="yes"/>
      <point x="223.832" y="99"/>
      <point x="192.05" y="115.313"/>
      <point x="190" y="149" type="curve"/>
    </contour>
  </outline>
</glyph>
<glyph name="s.ss12" format="2">
  <advance width="510"/>
  <anchor x="245" y="520" name="top"/>
  <anchor x="265" y="-20" name="bottom"/>
  <outline>
    <contour>
      <point x="28" y="86" type="line"/>
      <point x="82.522" y="18.072"/>
      <point x="164" y="-20"/>
      <point x="249" y="-20" type="curve" smooth="yes"/>
      <point x="390" y="-20"/>
      <point x="472" y="46"/>
      <point x="472" y="160.301" type="curve" smooth="yes"/>
      <point x="472" y="266.933"/>
      <point x="374.495" y="288.721"/>
      <point x="294.769" y="306.536" type="curve" smooth="yes"/>
      <point x="239.633" y="318.856"/>
      <point x="193" y="329.276"/>
      <point x="193" y="364.544" type="curve" smooth="yes"/>
      <point x="193" y="386.647"/>
      <point x="212" y="400"/>
      <point x="254" y="400" type="curve" smooth="yes"/>
      <point x="310" y="400"/>
      <point x="370" y="376.387"/>
      <point x="443" y="323" type="curve"/>
      <point x="452" y="425" type="line"/>
      <point x="404" y="486"/>
      <point x="331" y="520"/>
      <point x="240" y="520" type="curve" smooth="yes"/>
      <point x="112" y="520"/>
      <point x="28" y="453"/>
      <point x="28" y="340.579" type="curve" smooth="yes"/>
      <point x="28" y="236.996"/>
      <point x="125.574" y="213.297"/>
      <point x="205.315" y="193.929" type="curve" smooth="yes"/>
      <point x="260.414" y="180.546"/>
      <point x="307" y="169.231"/>
      <point x="307" y="135.059" type="curve" smooth="yes"/>
      <point x="307" y="114"/>
      <point x="291" y="100"/>
      <point x="247" y="100" type="curve" smooth="yes"/>
      <point x="178" y="100"/>
      <point x="94" y="134"/>
      <point x="37" y="188" type="curve"/>
    </contour>
  </outline>
</glyph>
<glyph name="seven.osf" format="2">
  <advance width="565"/>
  <outline>
    <contour>
      <point x="97" y="-146" type="line"/>
      <point x="280" y="-146" type="line"/>
      <point x="560" y="454" type="line"/>
      <point x="560" y="554" type="line"/>
      <point x="34" y="554" type="line"/>
      <point x="34" y="424" type="line"/>
      <point x="363" y="424" type="line"/>
    </contour>
  </outline>
</glyph>
<glyph name="sigmafinal.ss09" format="2">
  <advance width="582"/>
  <anchor x="296" y="519" name="topgr"/>
  <outline>
    <contour>
      <point x="507" y="-200" type="line"/>
      <point x="529" y="-175"/>
      <point x="559" y="-132"/>
      <point x="559" y="-71" type="curve" smooth="yes"/>
      <point x="559" y="52"/>
      <point x="435" y="102"/>
      <point x="331" y="102" type="curve" smooth="yes"/>
      <point x="224" y="102"/>
      <point x="186" y="155.358"/>
      <point x="186" y="247.98" type="curve" smooth="yes"/>
      <point x="186" y="344.628"/>
      <point x="227" y="400"/>
      <point x="300" y="400" type="curve" smooth="yes"/>
      <point x="355" y="400"/>
      <point x="385" y="367.957"/>
      <point x="391" y="333" type="curve"/>
      <point x="553" y="333" type="line"/>
      <point x="535" y="451.73"/>
      <point x="435" y="520"/>
      <point x="300" y="520" type="curve" smooth="yes"/>
      <point x="123" y="520"/>
      <point x="20" y="401"/>
      <point x="20" y="251" type="curve" smooth="yes"/>
      <point x="20" y="100"/>
      <point x="123" y="-20"/>
      <point x="292" y="-20" type="curve" smooth="yes"/>
      <point x="375" y="-20"/>
      <point x="394" y="-49"/>
      <point x="394" y="-94" type="curve" smooth="yes"/>
      <point x="394" y="-142"/>
      <point x="373" y="-165"/>
      <point x="348" y="-200" type="curve"/>
    </contour>
  </outline>
</glyph>
<glyph name="sigmafinal.ss12" format="2">
  <advance width="552"/>
  <anchor x="288" y="519" name="topgr"/>
  <outline>
    <contour>
      <point x="477" y="-200" type="line"/>
      <point x="499" y="-175"/>
      <point x="529" y="-131"/>
      <point x="529" y="-73" type="curve" smooth="yes"/>
      <point x="529" y="24"/>
      <point x="443" y="104"/>
      <point x="338" y="104" type="curve" smooth="yes"/>
      <point x="251" y="104"/>
      <point x="185" y="158"/>
      <point x="185" y="260" type="curve" smooth="yes"/>
      <point x="185" y="343"/>
      <point x="228" y="397"/>
      <point x="315" y="397" type="curve" smooth="yes"/>
      <point x="370" y="397"/>
      <point x="423" y="375"/>
      <point x="503" y="322" type="curve"/>
      <point x="512" y="425" type="line"/>
      <point x="461" y="486"/>
      <point x="383" y="520"/>
      <point x="290" y="520" type="curve" smooth="yes"/>
      <point x="116" y="520"/>
      <point x="20" y="401"/>
      <point x="20" y="251" type="curve" smooth="yes"/>
      <point x="20" y="100"/>
      <point x="116" y="-20"/>
      <point x="273" y="-20" type="curve" smooth="yes"/>
      <point x="343" y="-20"/>
      <point x="364" y="-44"/>
      <point x="364" y="-84" type="curve" smooth="yes"/>
      <point x="364" y="-123"/>
      <point x="343" y="-166"/>
      <point x="318" y="-200" type="curve"/>
    </contour>
  </outline>
</glyph>
<glyph name="sterling.ss10" format="2">
  <advance width="610"/>
  <outline>
    <contour>
      <point x="21" y="263" type="line"/>
      <point x="451" y="263" type="line"/>
      <point x="451" y="373" type="line"/>
      <point x="267" y="373" type="line"/>
      <point x="232" y="419"/>
      <point x="212" y="456"/>
      <point x="212" y="501" type="curve" smooth="yes"/>
      <point x="212" y="557"/>
      <point x="244" y="589"/>
      <point x="316" y="589" type="curve" smooth="yes"/>
      <point x="404" y="589"/>
      <point x="463" y="541"/>
      <point x="532" y="424" type="curve"/>
      <point x="577" y="583" type="line"/>
      <point x="522" y="664"/>
      <point x="435" y="720"/>
      <point x="311" y="720" type="curve" smooth="yes"/>
      <point x="164" y="720"/>
      <point x="47" y="641"/>
      <point x="47" y="514" type="curve" smooth="yes"/>
      <point x="47" y="464"/>
      <point x="65" y="424"/>
      <point x="102" y="373" type="curve"/>
      <point x="21" y="373" type="line"/>
    </contour>
    <contour>
      <point x="40" y="52" type="curve"/>
      <point x="40" y="-40" type="line"/>
      <point x="107" y="25"/>
      <point x="137" y="41"/>
      <point x="172" y="41" type="curve" smooth="yes"/>
      <point x="241" y="41"/>
      <point x="280" y="-20"/>
      <point x="385" y="-20" type="curve" smooth="yes"/>
      <point x="467" y="-20"/>
      <point x="530" y="17"/>
      <point x="573" y="73" type="curve"/>
      <point x="534" y="211" type="line"/>
      <point x="490" y="144"/>
      <point x="436" y="112"/>
      <point x="379" y="112" type="curve" smooth="yes"/>
      <point x="307" y="112"/>
      <point x="287" y="152"/>
      <point x="222" y="139" type="curve"/>
      <point x="302" y="177"/>
      <point x="318" y="245"/>
      <point x="303" y="287" type="curve"/>
      <point x="138" y="287" type="line"/>
      <point x="146.265" y="258.409"/>
      <point x="150.139" y="235.157"/>
      <point x="150.235" y="215.326" type="curve" smooth="yes"/>
      <point x="150.57" y="146.376"/>
      <point x="105.237" y="118.79"/>
    </contour>
  </outline>
</glyph>
<glyph name="thorn.ss11" format="2">
  <advance width="615"/>
  <outline>
    <contour>
      <point x="54" y="-200" type="line" name="av01"/>
      <point x="219" y="-200" type="line"/>
      <point x="219.11" y="79.12" type="line"/>
      <point x="250.64" y="16.55"/>
      <point x="301.17" y="-20"/>
      <point x="364" y="-20" type="curve" smooth="yes" name="dv01"/>
      <point x="501" y="-20"/>
      <point x="585" y="99"/>
      <point x="585" y="255" type="curve" smooth="yes"/>
      <point x="585" y="411"/>
      <point x="510" y="520"/>
      <point x="371" y="520" type="curve" smooth="yes" name="at01"/>
      <point x="303.05" y="520"/>
      <point x="251.02" y="487.15"/>
      <point x="219.11" y="427.6" type="curve"/>
      <point x="219.11" y="700" type="line"/>
      <point x="53.87" y="700" type="line"/>
    </contour>
    <contour>
      <point x="315" y="106" type="curve" smooth="yes" name="dv02"/>
      <point x="257.165" y="106"/>
      <point x="219.11" y="165.926"/>
      <point x="219.11" y="257" type="curve" smooth="yes"/>
      <point x="219.11" y="337.775"/>
      <point x="257.642" y="393"/>
      <point x="314" y="393" type="curve" smooth="yes" name="sv01"/>
      <point x="382" y="393"/>
      <point x="420" y="341"/>
      <point x="420" y="256" type="curve" smooth="yes"/>
      <point x="420" y="164"/>
      <point x="380" y="106"/>
    </contour>
  </outline>
</glyph>
<glyph name="tsecyr.loclBGR" format="2">
  <advance width="660"/>
  <outline>
    <contour>
      <point x="384" y="213" type="line"/>
      <point x="368" y="283" type="line"/>
      <point x="368" y="156.619"/>
      <point x="339" y="100"/>
      <point x="275" y="100" type="curve" smooth="yes"/>
      <point x="226" y="100"/>
      <point x="209" y="132.161"/>
      <point x="209" y="225.628" type="curve" smooth="yes"/>
      <point x="209" y="500" type="line"/>
      <point x="44" y="500" type="line"/>
      <point x="44" y="196" type="line" smooth="yes"/>
      <point x="44" y="53"/>
      <point x="106" y="-20"/>
      <point x="215" y="-20" type="curve" smooth="yes"/>
      <point x="306" y="-20"/>
      <point x="359" y="30"/>
      <point x="386" y="130" type="curve"/>
    </contour>
    <contour>
      <point x="368" y="0" type="line" name="ab01"/>
      <point x="533" y="0" type="line"/>
      <point x="533" y="500" type="line"/>
      <point x="368" y="500" type="line" name="av01"/>
    </contour>
    <contour>
      <point x="470" y="0" type="line"/>
      <point x="538.264" y="0"/>
      <point x="524" y="-72"/>
      <point x="524" y="-140" type="curve"/>
      <point x="641" y="-140" type="line"/>
      <point x="641" y="62"/>
      <point x="620.174" y="120"/>
      <point x="521" y="120" type="curve"/>
    </contour>
  </outline>
</glyph>
<glyph name="two.ss09" format="2">
  <advance width="612"/>
  <outline>
    <contour>
      <point x="46" y="0" type="line"/>
      <point x="565" y="0" type="line"/>
      <point x="565" y="130" type="line"/>
      <point x="46" y="130" type="line"/>
    </contour>
    <contour>
      <point x="46" y="90" type="line"/>
      <point x="429" y="164"/>
      <point x="565" y="283.376"/>
      <point x="565" y="478.785" type="curve" smooth="yes"/>
      <point x="565" y="635.973"/>
      <point x="477" y="719"/>
      <point x="322.048" y="719" type="curve" smooth="yes"/>
      <point x="169" y="719"/>
      <point x="77" y="638"/>
      <point x="49" y="502" type="curve"/>
      <point x="215" y="502" type="line"/>
      <point x="228" y="562"/>
      <point x="262" y="589"/>
      <point x="313" y="589" type="curve" smooth="yes"/>
      <point x="372" y="589"/>
      <point x="400" y="547.965"/>
      <point x="400" y="480.713" type="curve" smooth="yes"/>
      <point x="400" y="348.49"/>
      <point x="294" y="233"/>
      <point x="46" y="197" type="curve"/>
    </contour>
  </outline>
</glyph>
<glyph name="u.ss02" format="2">
  <advance width="593"/>
  <anchor x="290" y="-20" name="bottom"/>
  <anchor x="290" y="520" name="top"/>
  <anchor x="598" y="-3" name="ogonek"/>
  <outline>
    <contour>
      <point x="386" y="213" type="line"/>
      <point x="370" y="283" type="line"/>
      <point x="370" y="156.619"/>
      <point x="341" y="100"/>
      <point x="277" y="100" type="curve" smooth="yes"/>
      <point x="228" y="100"/>
      <point x="211" y="132.161"/>
      <point x="211" y="225.628" type="curve" smooth="yes"/>
      <point x="211" y="500" type="line"/>
      <point x="46" y="500" type="line"/>
      <point x="46" y="196" type="line" smooth="yes"/>
      <point x="46" y="53"/>
      <point x="108" y="-20"/>
      <point x="217" y="-20" type="curve" smooth="yes"/>
      <point x="308" y="-20"/>
      <point x="361" y="30"/>
      <point x="388" y="130" type="curve"/>
    </contour>
    <contour>
      <point x="583" y="117" type="line"/>
      <point x="571.872" y="111.385"/>
      <point x="556.014" y="107"/>
      <point x="547.963" y="107" type="curve" smooth="yes" name="dv02"/>
      <point x="538.783" y="107"/>
      <point x="535" y="127"/>
      <point x="535" y="193" type="curve" smooth="yes"/>
      <point x="535" y="500" type="line" name="ab01"/>
      <point x="370" y="500" type="line"/>
      <point x="370" y="132" type="line" smooth="yes"/>
      <point x="370" y="33"/>
      <point x="412.356" y="-20"/>
      <point x="502.881" y="-20" type="curve" smooth="yes" name="dv01"/>
      <point x="535.271" y="-20"/>
      <point x="566" y="-11"/>
      <point x="613" y="5" type="curve"/>
    </contour>
  </outline>
</glyph>
<glyph name="y.ss04" format="2">
  <advance width="586"/>
  <anchor x="578" y="0" name="bottom"/>
  <anchor x="291" y="520" name="top"/>
  <outline>
    <contour>
      <point x="378" y="283" type="line" name="iv01"/>
      <point x="378" y="172"/>
      <point x="347.739" y="124"/>
      <point x="282.489" y="124" type="curve" smooth="yes" name="sv01"/>
      <point x="222.913" y="124"/>
      <point x="204" y="144"/>
      <point x="204" y="267" type="curve" smooth="yes"/>
      <point x="204" y="500" type="line" name="av01"/>
      <point x="39" y="500" type="line"/>
      <point x="39" y="216" type="line" smooth="yes"/>
      <point x="39" y="69"/>
      <point x="109.834" y="0"/>
      <point x="227.244" y="0" type="curve" smooth="yes" name="ab01"/>
      <point x="334.95" y="0"/>
      <point x="383.467" y="58"/>
      <point x="404" y="130" type="curve"/>
    </contour>
    <contour>
      <point x="50" y="-127" type="line"/>
      <point x="98.047" y="-188"/>
      <point x="174.922" y="-220"/>
      <point x="270.055" y="-220" type="curve" smooth="yes" name="at01"/>
      <point x="437.258" y="-220"/>
      <point x="542" y="-121"/>
      <point x="542" y="52" type="curve" smooth="yes"/>
      <point x="542" y="500" type="line" name="av01"/>
      <point x="378" y="500" type="line"/>
      <point x="378" y="68" type="line" smooth="yes"/>
      <point x="378" y="-56"/>
      <point x="330.878" y="-97"/>
      <point x="260.658" y="-97" type="curve" smooth="yes" name="sv01"/>
      <point x="211.688" y="-97"/>
      <point x="163.364" y="-77"/>
      <point x="135" y="-42" type="curve"/>
    </contour>
  </outline>
</glyph>
<glyph name="yucyr.loclBGR" format="2">
  <advance width="838"/>
  <anchor x="418" y="-20" name="bottom"/>
  <anchor x="426" y="500" name="top"/>
  <outline>
    <contour>
      <point x="179" y="194" type="line"/>
      <point x="315" y="194" type="line"/>
      <point x="315" y="314" type="line"/>
      <point x="179" y="314" type="line"/>
    </contour>
    <contour>
      <point x="544" y="-20" type="curve" smooth="yes" name="dv01"/>
      <point x="709" y="-20"/>
      <point x="813" y="80"/>
      <point x="813" y="255" type="curve" smooth="yes"/>
      <point x="813" y="431"/>
      <point x="705" y="520"/>
      <point x="544" y="520" type="curve" smooth="yes" name="at01"/>
      <point x="391" y="520"/>
      <point x="275" y="429"/>
      <point x="275" y="255" type="curve" smooth="yes"/>
      <point x="275" y="89"/>
      <point x="383" y="-20"/>
    </contour>
    <contour>
      <point x="541" y="103" type="curve" smooth="yes" name="dv02"/>
      <point x="475" y="103"/>
      <point x="440" y="155"/>
      <point x="440" y="254" type="curve" smooth="yes"/>
      <point x="440" y="349"/>
      <point x="474" y="396"/>
      <point x="542" y="396" type="curve" smooth="yes" name="sv01"/>
      <point x="612" y="396"/>
      <point x="648" y="347"/>
      <point x="648" y="252" type="curve" smooth="yes"/>
      <point x="648" y="156"/>
      <point x="610" y="103"/>
    </contour>
    <contour>
      <point x="39" y="0" type="line" name="ab01"/>
      <point x="204" y="0" type="line"/>
      <point x="204" y="500" type="line"/>
      <point x="39" y="500" type="line" name="av01"/>
    </contour>
    <contour>
      <point x="39" y="132" type="line"/>
      <point x="204" y="193" type="line"/>
      <point x="204" y="750" type="line" name="ab01"/>
      <point x="39" y="750" type="line"/>
    </contour>
  </outline>
</glyph>
